0
SECTION
2
HEADER
9
$ACADVER
1
AC1027
0
ENDSEC
0
SECTION
2
CLASSES
0
CLASS
1
PumpProxy
2
AcDbPump
3
PlantReview
90
0
91
1
280
0
281
0
0
ENDSEC
0
SECTION
2
TABLES
0
TABLE
2
LTYPE
70
2
0
LTYPE
5
10
2
CONTINUOUS
70
0
3
Continuous
72
65
73
0
40
0
0
LTYPE
5
11
2
DASHED
70
0
3
Hidden pipe
72
65
73
2
40
1.0
49
0.6
74
0
49
-0.4
74
0
0
ENDTAB
0
TABLE
2
STYLE
70
3
0
STYLE
5
20
2
STANDARD
70
0
40
0
41
1
50
0
71
0
42
2.5
3
txt.shx
4

0
STYLE
5
21
2
ANNOTATION
70
0
40
0
41
1
50
0
71
0
42
2.5
3
arial.ttf
4

0
STYLE
5
22
2
TITLE
70
0
40
0
41
1
50
0
71
0
42
2.5
3
arial.ttf
4

0
ENDTAB
0
TABLE
2
LAYER
70
4
0
LAYER
5
30
2
0
70
0
62
7
6
CONTINUOUS
0
LAYER
5
31
2
EQUIPMENT
70
0
62
1
6
CONTINUOUS
0
LAYER
5
32
2
PIPING
70
0
62
3
6
DASHED
0
LAYER
5
33
2
TEXT
70
0
62
2
6
CONTINUOUS
0
ENDTAB
0
ENDSEC
0
SECTION
2
BLOCKS
0
BLOCK
5
40
2
PUMP
70
0
10
0
20
0
30
0
3
PUMP
1

0
CIRCLE
5
41
330
40
8
EQUIPMENT
10
0
20
0
30
0
40
8
0
LINE
5
42
330
40
8
EQUIPMENT
10
-8
20
0
11
8
21
0
0
ATTDEF
5
43
330
40
8
TEXT
10
-6
20
10
40
2
1
P-101
2
TAG
3
Pump tag
70
0
7
ANNOTATION
0
ENDBLK
0
ENDSEC
0
SECTION
2
ENTITIES
0
INSERT
5
100
330
AA
8
EQUIPMENT
2
PUMP
66
1
10
0
20
0
30
0
41
1
42
1
43
1
50
0
0
ATTRIB
5
101
330
100
8
TEXT
10
-6
20
10
40
2
1
P-101
2
TAG
70
0
7
ANNOTATION
0
SEQEND
0
INSERT
5
104
330
AA
8
EQUIPMENT
2
PUMP
66
1
10
40
20
0
30
0
41
1
42
1
43
1
50
0
0
ATTRIB
5
105
330
104
8
TEXT
10
34
20
10
40
2
1
P-102
2
TAG
70
0
7
ANNOTATION
0
SEQEND
0
INSERT
5
108
330
AA
8
EQUIPMENT
2
PUMP
66
1
10
80
20
0
30
0
41
1
42
1
43
1
50
0
0
ATTRIB
5
109
330
108
8
TEXT
10
74
20
10
40
2
1
P-103
2
TAG
70
0
7
ANNOTATION
0
SEQEND
0
INSERT
5
10C
330
AA
8
EQUIPMENT
2
PUMP
66
1
10
120
20
0
30
0
41
1
42
1
43
1
50
0
0
ATTRIB
5
10D
330
10C
8
TEXT
10
114
20
10
40
2
1
P-104
2
TAG
70
0
7
ANNOTATION
0
SEQEND
0
INSERT
5
110
330
AA
8
EQUIPMENT
2
PUMP
66
1
10
0
20
35
30
0
41
1
42
1
43
1
50
0
0
ATTRIB
5
111
330
110
8
TEXT
10
-6
20
45
40
2
1
P-105
2
TAG
70
0
7
ANNOTATION
0
SEQEND
0
INSERT
5
114
330
AA
8
EQUIPMENT
2
PUMP
66
1
10
40
20
35
30
0
41
1
42
1
43
1
50
0
0
ATTRIB
5
115
330
114
8
TEXT
10
34
20
45
40
2
1
P-106
2
TAG
70
0
7
ANNOTATION
0
SEQEND
0
INSERT
5
118
330
AA
8
EQUIPMENT
2
PUMP
66
1
10
80
20
35
30
0
41
1
42
1
43
1
50
0
0
ATTRIB
5
119
330
118
8
TEXT
10
74
20
45
40
2
1
P-107
2
TAG
70
0
7
ANNOTATION
0
SEQEND
0
INSERT
5
11C
330
AA
8
EQUIPMENT
2
PUMP
66
1
10
120
20
35
30
0
41
1
42
1
43
1
50
0
0
ATTRIB
5
11D
330
11C
8
TEXT
10
114
20
45
40
2
1
P-108
2
TAG
70
0
7
ANNOTATION
0
SEQEND
0
INSERT
5
120
330
AA
8
EQUIPMENT
2
PUMP
66
1
10
0
20
70
30
0
41
1
42
1
43
1
50
0
0
ATTRIB
5
121
330
120
8
TEXT
10
-6
20
80
40
2
1
P-109
2
TAG
70
0
7
ANNOTATION
0
SEQEND
0
INSERT
5
124
330
AA
8
EQUIPMENT
2
PUMP
66
1
10
40
20
70
30
0
41
1
42
1
43
1
50
0
0
ATTRIB
5
125
330
124
8
TEXT
10
34
20
80
40
2
1
P-110
2
TAG
70
0
7
ANNOTATION
0
SEQEND
0
INSERT
5
128
330
AA
8
EQUIPMENT
2
PUMP
66
1
10
80
20
70
30
0
41
1
42
1
43
1
50
0
0
ATTRIB
5
129
330
128
8
TEXT
10
74
20
80
40
2
1
P-111
2
TAG
70
0
7
ANNOTATION
0
SEQEND
0
INSERT
5
12C
330
AA
8
EQUIPMENT
2
PUMP
66
1
10
120
20
70
30
0
41
1
42
1
43
1
50
0
0
ATTRIB
5
12D
330
12C
8
TEXT
10
114
20
80
40
2
1
P-112
2
TAG
70
0
7
ANNOTATION
0
SEQEND
0
LINE
5
200
330
AA
8
PIPING
6
DASHED
10
0
20
5
11
0
21
70
0
LINE
5
201
330
AA
8
PIPING
6
DASHED
10
7
20
5
11
7
21
70
0
LINE
5
202
330
AA
8
PIPING
6
DASHED
10
14
20
5
11
14
21
70
0
LINE
5
203
330
AA
8
PIPING
6
DASHED
10
21
20
5
11
21
21
70
0
LINE
5
204
330
AA
8
PIPING
6
DASHED
10
28
20
5
11
28
21
70
0
LINE
5
205
330
AA
8
PIPING
6
DASHED
10
35
20
5
11
35
21
70
0
LINE
5
206
330
AA
8
PIPING
6
DASHED
10
42
20
5
11
42
21
70
0
LINE
5
207
330
AA
8
PIPING
6
DASHED
10
49
20
5
11
49
21
70
0
LINE
5
208
330
AA
8
PIPING
6
DASHED
10
56
20
5
11
56
21
70
0
LINE
5
209
330
AA
8
PIPING
6
DASHED
10
63
20
5
11
63
21
70
0
LINE
5
20A
330
AA
8
PIPING
6
DASHED
10
70
20
5
11
70
21
70
0
LINE
5
20B
330
AA
8
PIPING
6
DASHED
10
77
20
5
11
77
21
70
0
LINE
5
20C
330
AA
8
PIPING
6
DASHED
10
84
20
5
11
84
21
70
0
LINE
5
20D
330
AA
8
PIPING
6
DASHED
10
91
20
5
11
91
21
70
0
LINE
5
20E
330
AA
8
PIPING
6
DASHED
10
98
20
5
11
98
21
70
0
LINE
5
20F
330
AA
8
PIPING
6
DASHED
10
105
20
5
11
105
21
70
0
LINE
5
210
330
AA
8
PIPING
6
DASHED
10
112
20
5
11
112
21
70
0
LINE
5
211
330
AA
8
PIPING
6
DASHED
10
119
20
5
11
119
21
70
0
LINE
5
212
330
AA
8
PIPING
6
DASHED
10
126
20
5
11
126
21
70
0
LINE
5
213
330
AA
8
PIPING
6
DASHED
10
133
20
5
11
133
21
70
0
MTEXT
5
301
330
AA
8
TEXT
7
TITLE
10
0
20
100
40
3
41
110
3
Plant inspection\P
1
Pumps \C1;P-101 to P-112\PReview corrosion and seals
0
TEXT
5
302
330
AA
8
TEXT
7
MISSING_STYLE
10
0
20
95
40
2
1
Unresolved style sample
0
ACAD_PROXY_ENTITY
5
303
330
AA
8
EQUIPMENT
90
498
91
500
310
414243444546
330
40
0
ENDSEC
0
SECTION
2
OBJECTS
0
DICTIONARY
5
AA
330
0
280
0
281
1
3
PUMPSET
350
AB
0
DICTIONARY
5
AB
330
AA
280
0
0
XRECORD
5
C1
330
C2
1
Cyclic owner one
0
XRECORD
5
C2
330
C1
1
Cyclic owner two
0
XRECORD
5
D1
330
MISSING
1
Missing owner
0
XRECORD
5
E1
330
AA
1
Duplicate handle first
0
XRECORD
5
E1
330
AA
1
Duplicate handle second
0
IMAGEDEF
5
F1
330
AA
1
references/pump-photo.png
10
100
20
100
11
1
21
1
280
1
281
0
0
ENDSEC
0
EOF
